<?xml version="1.0" encoding="UTF-8"?>
<!DOCTYPE svg PUBLIC "-//W3C//DTD SVG 1.1//EN" "http://www.w3.org/Graphics/SVG/1.1/DTD/svg11.dtd">
<svg xmlns="http://www.w3.org/2000/svg" version="1.1" width="500px" height="500px" style="shape-rendering:geometricPrecision; text-rendering:geometricPrecision; image-rendering:optimizeQuality; fill-rule:evenodd; clip-rule:evenodd" xmlns:xlink="http://www.w3.org/1999/xlink">
<g><path style="opacity:1" fill="#018000" d="M -0.5,-0.5 C 38.8333,-0.5 78.1667,-0.5 117.5,-0.5C 78.4053,96.6765 39.0719,193.677 -0.5,290.5C -0.5,193.5 -0.5,96.5 -0.5,-0.5 Z"/></g>
<g><path style="opacity:1" fill="#fecb00" d="M 117.5,-0.5 C 163.167,-0.5 208.833,-0.5 254.5,-0.5C 335.77,33.2956 417.437,66.2956 499.5,98.5C 499.5,195.5 499.5,292.5 499.5,389.5C 484.128,425.935 469.128,462.601 454.5,499.5C 354.833,499.5 255.167,499.5 155.5,499.5C 103.736,478.129 51.736,457.129 -0.5,436.5C -0.5,387.833 -0.5,339.167 -0.5,290.5C 39.0719,193.677 78.4053,96.6765 117.5,-0.5 Z"/></g>
<g><path style="opacity:1" fill="#028000" d="M 254.5,-0.5 C 336.167,-0.5 417.833,-0.5 499.5,-0.5C 499.5,32.5 499.5,65.5 499.5,98.5C 417.437,66.2956 335.77,33.2956 254.5,-0.5 Z"/></g>
<g><path style="opacity:1" fill="#050300" d="M 224.5,39.5 C 229.814,38.7397 233.647,40.7397 236,45.5C 236.667,50.5 236.667,55.5 236,60.5C 208.959,156.028 182.292,251.694 156,347.5C 155.505,349.473 155.338,351.473 155.5,353.5C 213.471,340.97 272.137,335.303 331.5,336.5C 331.5,337.5 331.5,338.5 331.5,339.5C 269.432,340.067 209.098,350.567 150.5,371C 146.534,382.237 143.368,393.737 141,405.5C 140.273,408.155 139.106,410.488 137.5,412.5C 136.359,410.579 136.192,408.579 137,406.5C 139.288,395.432 141.788,384.432 144.5,373.5C 137.295,374.957 130.295,377.123 123.5,380C 107.045,386.979 90.545,393.812 74,400.5C 71.4316,400.049 69.0983,399.049 67,397.5C 60.7844,391.532 61.2844,386.032 68.5,381C 93.9252,369.859 120.259,361.525 147.5,356C 171.047,257.279 193.214,158.113 214,58.5C 215.237,50.8002 218.737,44.4669 224.5,39.5 Z"/></g>
<g><path style="opacity:1" fill="#080500" d="M 260.5,205.5 C 277.75,204.061 293.417,208.061 307.5,217.5C 285.747,232.404 265.58,249.404 247,268.5C 244.36,273.373 245.86,275.373 251.5,274.5C 257.562,274.067 263.562,273.234 269.5,272C 273.447,269.72 277.113,267.053 280.5,264C 289.149,262.485 294.816,265.818 297.5,274C 297.142,276.032 296.308,277.866 295,279.5C 282.33,289.906 267.83,293.739 251.5,291C 246.793,289.88 242.126,288.547 237.5,287C 232.341,285.347 229.674,281.847 229.5,276.5C 229.804,272.886 230.971,269.552 233,266.5C 236.806,262.694 240.64,258.86 244.5,255C 262.49,242.337 280.823,230.17 299.5,218.5C 298.91,217.201 297.91,216.368 296.5,216C 283.42,213.815 271.087,215.815 259.5,222C 255.57,225.755 252.737,230.255 251,235.5C 249.612,236.554 248.112,236.72 246.5,236C 243.37,233.872 240.537,231.372 238,228.5C 234.753,221.27 236.586,215.77 243.5,212C 248.882,208.712 254.549,206.545 260.5,205.5 Z"/></g>
<g><path style="opacity:1" fill="#060400" d="M 380.5,207.5 C 388.299,208.107 393.799,212.107 397,219.5C 398.929,227.564 398.595,235.564 396,243.5C 391.219,260.063 383.553,275.063 373,288.5C 367.249,296.795 359.415,300.295 349.5,299C 343.709,295.926 340.543,291.093 340,284.5C 339.524,279.783 339.524,275.117 340,270.5C 334.349,279.63 327.849,288.13 320.5,296C 317.489,298.502 314.155,299.002 310.5,297.5C 307.032,288.711 306.532,279.711 309,270.5C 310.643,262.45 312.476,254.45 314.5,246.5C 314.017,243.176 312.184,240.842 309,239.5C 306.924,236.783 306.257,233.783 307,230.5C 310.883,226.95 315.049,223.783 319.5,221C 328.473,218.979 334.139,222.312 336.5,231C 333.838,244.159 329.338,256.659 323,268.5C 321.957,271.757 321.457,275.09 321.5,278.5C 322.873,278.657 324.207,278.49 325.5,278C 334.213,269.288 341.38,259.454 347,248.5C 347.667,247.167 347.667,245.833 347,244.5C 339.093,233.932 341.593,227.599 354.5,225.5C 362.601,226.434 367.268,230.934 368.5,239C 366.466,250.769 362.633,261.935 357,272.5C 355.723,276.097 355.39,279.764 356,283.5C 357.868,284.672 359.702,284.505 361.5,283C 377.247,268.677 387.747,251.177 393,230.5C 394.936,220.586 391.102,213.919 381.5,210.5C 380.614,209.675 380.281,208.675 380.5,207.5 Z"/></g>
<g><path style="opacity:1" fill="#058000" d="M 499.5,389.5 C 499.5,426.167 499.5,462.833 499.5,499.5C 484.5,499.5 469.5,499.5 454.5,499.5C 469.128,462.601 484.128,425.935 499.5,389.5 Z"/></g>
<g><path style="opacity:1" fill="#028000" d="M -0.5,436.5 C 51.736,457.129 103.736,478.129 155.5,499.5C 103.5,499.5 51.5,499.5 -0.5,499.5C -0.5,478.5 -0.5,457.5 -0.5,436.5 Z"/></g>
</svg>
